<svg width="22" height="42" xmlns="http://www.w3.org/2000/svg" xmlns:xlink="http://www.w3.org/1999/xlink" xml:space="preserve" overflow="hidden"><defs><clipPath id="clip0"><rect x="1220" y="26" width="22" height="42"/></clipPath><clipPath id="clip1"><rect x="1220" y="26" width="22" height="42"/></clipPath><clipPath id="clip2"><rect x="1220" y="27" width="22" height="41"/></clipPath><clipPath id="clip3"><rect x="1220" y="27" width="22" height="41"/></clipPath><clipPath id="clip4"><rect x="1220" y="27" width="22" height="41"/></clipPath></defs><g clip-path="url(#clip0)" transform="translate(-1220 -26)"><g clip-path="url(#clip1)"><g clip-path="url(#clip2)"><g clip-path="url(#clip3)"><g clip-path="url(#clip4)"><path d="M10.9174 41C16.9429 41.0036 21.8304 36.1218 21.8339 30.0963 21.8339 30.0917 21.8339 30.0872 21.8339 30.0826L21.8339 9.82531C21.8316 5.64187 19.4412 1.82687 15.6777-2.41072e-07L15.6777 0C16.819 1.71178 17.6505 3.61087 18.1343 5.61056 17.0618 5.12743 15.9446 4.75063 14.7986 4.48556L14.7986 4.48556C17.1823 5.8606 18.6507 8.40341 18.6502 11.1552 18.6448 11.9794 18.5117 12.7978 18.2556 13.5812 14.0858 9.8206 7.74809 9.8206 3.57832 13.5812 3.32222 12.7978 3.18912 11.9794 3.18376 11.1552 3.18326 8.40341 4.65166 5.8606 7.0353 4.48555L7.0353 4.48556C5.88822 4.75042 4.76991 5.12723 3.69644 5.61056 4.18117 3.61066 5.01376 1.71156 6.15619 0 2.39272 1.82687 0.00237392 5.64187 8.03575e-08 9.82531L0 30.0826C-0.00399554 36.1081 4.8774 40.996 10.9029 41 10.9077 41 10.9125 41 10.9174 41ZM10.9174 14.0103C15.1845 14.0068 18.6466 17.4631 18.6502 21.7303 18.6502 21.7346 18.6502 21.7388 18.6502 21.7431 18.6552 21.9458 18.645 22.1487 18.6196 22.3498 14.3623 18.1038 7.47167 18.1038 3.2143 22.3498 3.1889 22.1486 3.1787 21.9458 3.18376 21.7431 3.18066 17.4755 6.63771 14.0134 10.9053 14.0103 10.9093 14.0103 10.9133 14.0103 10.9174 14.0103ZM10.9174 22.3498C15.1881 22.3503 18.6498 25.8127 18.6494 30.0834 18.6489 34.3541 15.1865 37.8159 10.9158 37.8154 6.64537 37.815 3.18376 34.353 3.18376 30.0826 3.18021 25.8155 6.63655 22.3534 10.9037 22.3498 10.9083 22.3498 10.9128 22.3498 10.9174 22.3498Z" fill="#91B121" fill-rule="nonzero" fill-opacity="1" transform="matrix(1.0061 0 0 1 1220.02 27)"/></g></g></g></g></g></svg>